<svg id="Шар_1" data-name="Шар 1" xmlns="http://www.w3.org/2000/svg" viewBox="0 0 422.06 177.18"><defs><style>.cls-1{fill:#1d911d;}.cls-1,.cls-2{stroke:#000;stroke-miterlimit:10;stroke-width:0.25px;}.cls-2{fill:#fff;}</style></defs><title>Без назви-1</title><path d="M39.8,144.76H54.39l12.14,28.77,12.23-28.77H93.35v58.87H78.68l.08-17,.9-11.89-.49-.09L71.59,194.9h-10l-7.74-20.21-.41.09,1,11.89v17H39.8Z" transform="translate(-39.63 -143.93)"/><path d="M151.47,203.63H135.82l-3.75-11.81H116.66l-3.58,11.81H97.43l20.13-58.87h13.29Zm-22.91-25-4-17.21h-.41l-4.24,17.21Z" transform="translate(-39.63 -143.93)"/><path d="M185.62,144.76H203.8L181,173.2l22.74,30.43H185.21l-14.75-21-.49.67v20.37H155.3V144.76H170v21.79Z" transform="translate(-39.63 -143.93)"/><path d="M220,167.88h23.39v12.88H220v8.82h25.43v14H205.27V144.76h40.18v14H220Z" transform="translate(-39.63 -143.93)"/><path d="M310.17,191.24a23.16,23.16,0,0,1-20.78,13.22c-11.33,0-22.75-6.73-22.75-20.12V164.05c0-13.3,11.42-20.12,23-20.12,7.09,0,15.65,3.08,20.3,13.55L298,162.39c-3.92-7.32-16.8-5.66-16.8,1.66v20.29c0,7.07,13,9.06,16.23.91Z" transform="translate(-39.63 -143.93)"/><path d="M314.08,164.13c0-13.55,11.9-20.2,23.89-20.2s24,6.74,24,20.2v20.13c0,13.47-11.9,20.2-23.88,20.2s-24-6.73-24-20.2Zm14.59,20.13c0,4.32,4.73,6.4,9.38,6.4s9.29-2.16,9.29-6.4V164.13c0-4.57-4.81-6.65-9.54-6.65-4.56,0-9.13,2.33-9.13,6.65Z" transform="translate(-39.63 -143.93)"/><path d="M391.27,144.76c11.58,0,22.42,6,22.42,19.71v19.79c0,13.55-10.84,19.45-22.42,19.37h-21.6V144.76Zm.49,44.9c5,0,7.26-2.58,7.26-6.4V164.88c0-3.82-2.37-6.23-7.26-6.23h-7.41v31Z" transform="translate(-39.63 -143.93)"/><path d="M436.27,167.88h23.39v12.88H436.27v8.82H461.7v14H421.51V144.76H461.7v14H436.27Z" transform="translate(-39.63 -143.93)"/><path d="M141.63,230.41l-24.1,90.7h-4.77l-22-74-22.12,74H64.09l-24.46-90.7h3.15l23.4,86.21h.58l22-72.63h3.84l22.13,72.89h.7l23.05-86.47Z" transform="translate(-39.63 -143.93)"/><path d="M378,320.66l-27.72-40.48H331.55v40.48h-2.8V230h29.11c14.33,0,25.27,6.15,25.62,24.59,0,18.83-10.48,25.62-25.5,25.62h-4.42l27.82,40.48Zm-20-43.3c15,0,22.71-6.66,22.71-22.67,0-16.4-9.55-22-22.71-21.78H331.55v44.45Z" transform="translate(-39.63 -143.93)"/><path d="M408.63,285.05,457.42,230h3.73l-38.08,43.68,38.08,47h-3.38L421,276l-12.35,13.57v31.13h-2.91V230h2.91Z" transform="translate(-39.63 -143.93)"/><rect class="cls-1" x="112.94" y="90.42" width="159.53" height="82.09" rx="40.18" ry="40.18"/><circle class="cls-2" cx="229.97" cy="131.12" r="33.19"/></svg>